<svg xmlns="http://www.w3.org/2000/svg" version="1.1" xmlns:xlink="http://www.w3.org/1999/xlink" xmlns:svgjs="http://svgjs.dev/svgjs" width="490" height="490"><svg id="SvgjsSvg1001" data-name="Layer 1" xmlns="http://www.w3.org/2000/svg" viewBox="0 0 490 490">
  <defs>
    <style>
      .cls-1 {
        fill: #fff;
      }

      .cls-2 {
        fill: #ff3451;
      }

      .cls-3 {
        fill: #ff2a4e;
        font-family: Jokerman-Regular, Jokerman;
        font-size: 230px;
      }
    </style>
  </defs>
  <g>
    <path className="cls-1" d="M245,470c-60.1,0-116.6-23.4-159.1-65.9-42.5-42.5-65.9-99-65.9-159.1s23.4-116.6,65.9-159.1C128.4,43.4,184.9,20,245,20s116.6,23.4,159.1,65.9c42.5,42.5,65.9,99,65.9,159.1s-23.4,116.6-65.9,159.1-99,65.9-159.1,65.9Z"></path>
    <path className="cls-2" d="M245,40c54.76,0,106.24,21.32,144.96,60.04,38.72,38.72,60.04,90.2,60.04,144.96s-21.32,106.24-60.04,144.96c-38.72,38.72-90.2,60.04-144.96,60.04s-106.24-21.32-144.96-60.04c-38.72-38.72-60.04-90.2-60.04-144.96s21.32-106.24,60.04-144.96c38.72-38.72,90.2-60.04,144.96-60.04M245,0C109.69,0,0,109.69,0,245s109.69,245,245,245,245-109.69,245-245S380.31,0,245,0h0Z"></path>
  </g>
  <text className="cls-3" transform="translate(108 325.41)" svgjs:data="{&quot;leading&quot;:&quot;1.3&quot;}"><tspan x="0" y="0">SE</tspan></text>
</svg><style>@media (prefers-color-scheme: light) { :root { filter: none; } }
@media (prefers-color-scheme: dark) { :root { filter: none; } }
</style></svg>